HIERARCHY
ROOT Hips
{
	OFFSET 0.00000 0.00000 0.00000
	CHANNELS 6 Xposition Yposition Zposition Zrotation Yrotation Xrotation 
	JOINT RightUpLegDummy
	{
		OFFSET 0 0 0
		CHANNELS 3 Zrotation Yrotation Xrotation
		JOINT RightUpLeg
		{
			OFFSET -3.52197 -3.41223 0.04002
			CHANNELS 3 Zrotation Yrotation Xrotation
			JOINT RightLeg
			{
				OFFSET 0.00006 -17.42390 1.60435
				CHANNELS 3 Zrotation Yrotation Xrotation
				JOINT RightFoot
				{
					OFFSET 0.06153 -16.50078 -1.63901
					CHANNELS 3 Zrotation Yrotation Xrotation
					JOINT RightToes
					{
						OFFSET 0.00298 -1.73825 3.34613
						CHANNELS 3 Zrotation Yrotation Xrotation
						End Site
						{
							OFFSET 0.00480 -0.05416 3.85043
						}
					}
				}
			}
		}
	}
	JOINT SpineDummy
	{
		OFFSET 0 0 0
		CHANNELS 3 Zrotation Yrotation Xrotation
		JOINT Spine
		{
			OFFSET 0.00000 4.68130 0.00000
			CHANNELS 3 Zrotation Yrotation Xrotation
			JOINT Spine1
			{
				OFFSET -0.00000 10.10138 0.05002
				CHANNELS 3 Zrotation Yrotation Xrotation
				JOINT HEadDummy
				{
					OFFSET 0 0 0
					CHANNELS 3 Zrotation Yrotation Xrotation
					JOINT Head
					{
						OFFSET -0.00000 3.43865 0.00438
						CHANNELS 3 Zrotation Yrotation Xrotation
						End Site
						{
							OFFSET -0.11417 5.02924 0.98962
						}
					}
				}
				JOINT LeftShoulder1Dummy
				{
					OFFSET 0 0 0
					CHANNELS 3 Zrotation Yrotation Xrotation
					JOINT LeftShoulder1
					{
						OFFSET 3.53937 -0.14262 -0.08662
						CHANNELS 3 Zrotation Yrotation Xrotation
						JOINT LeftArm
						{
							OFFSET 4.04833 -0.00133 0.12681
							CHANNELS 3 Zrotation Yrotation Xrotation
							JOINT LeftForeArm
							{
								OFFSET 10.33880 -0.01036 -0.55515
								CHANNELS 3 Zrotation Yrotation Xrotation
								JOINT LeftHand
								{
									OFFSET 8.69677 0.07543 0.40060
									CHANNELS 3 Zrotation Yrotation Xrotation
									End Site
									{
										OFFSET 5.28377 -0.21905 0.59205
									}
								}
							}
						}
					}
				}
				JOINT RightShoulderDummy
				{
					OFFSET 0 0 0
					CHANNELS 3 Zrotation Yrotation Xrotation
					JOINT RightShoulder
					{
						OFFSET -3.53937 -0.14262 -0.08660
						CHANNELS 3 Zrotation Yrotation Xrotation
						JOINT RightArm
						{
							OFFSET -4.04833 -0.00133 0.12683
							CHANNELS 3 Zrotation Yrotation Xrotation
							JOINT RightForeArm
							{
								OFFSET -10.37987 -0.01039 -0.55511
								CHANNELS 3 Zrotation Yrotation Xrotation
								JOINT RightHand
								{
									OFFSET -8.67398 0.07538 0.40058
									CHANNELS 3 Zrotation Yrotation Xrotation
									End Site
									{
										OFFSET -5.24810 -0.21916 0.59204
									}
								}
							}
						}
					}
				}
			}
		}
	}
	JOINT LeftUpLegDummy
	{
		OFFSET 0 0 0
		CHANNELS 3 Zrotation Yrotation Xrotation
		JOINT LeftUpLeg
		{
			OFFSET 3.52197 -3.41223 0.04002
			CHANNELS 3 Zrotation Yrotation Xrotation
			JOINT LeftLeg
			{
				OFFSET -0.00012 -17.42399 1.60337
				CHANNELS 3 Zrotation Yrotation Xrotation
				JOINT LeftFoot
				{
					OFFSET -0.09972 -16.50070 -1.63802
					CHANNELS 3 Zrotation Yrotation Xrotation
					JOINT LeftToes
					{
						OFFSET -0.01575 -1.73823 3.34611
						CHANNELS 3 Zrotation Yrotation Xrotation
						End Site
						{
							OFFSET 0.03150 -0.01868 3.85031
						}
					}
				}
			}
		}
	}
}
MOTION
Frames: 19
Frame Time: 0.033333
-47.8041 39.9300 71.8264 -179.4890 4.8760 178.4650 0.0000 0.0000 0.0000 2.0274 -0.7111 0.0110 -0.9810 1.2690 4.4989 -2.5184 0.1551 -3.0919 0.0000 -0.0000 -0.0000 0.0000 0.0000 0.0000 -0.3259 -0.1330 1.3200 3.6484 -0.8060 -0.1456 -0.0000 0.0000 -0.0000 -3.2323 1.9893 -2.1523 -0.0000 0.0000 -0.0000 -34.3528 -2.7651 2.5318 -44.5102 -13.1513 -17.6504 -10.5653 5.1151 48.4982 15.1414 -3.0798 -1.0817 -0.0000 0.0000 -0.0000 34.5147 5.0609 3.4714 40.8889 3.6524 -17.1496 10.5541 0.8938 23.3747 -12.5572 1.1558 -0.6983 0.0000 0.0000 0.0000 2.5686 2.2872 0.3785 0.8821 3.3284 5.2804 1.2903 -0.0647 -4.0459 0.0000 0.0000 -0.0000
-47.7975 39.9300 71.8196 -179.4750 4.8996 178.4650 0.0000 0.0000 0.0000 2.0319 -0.7303 0.0110 -0.9337 1.3032 4.5352 -2.5628 0.1580 -3.0920 0.0000 -0.0000 -0.0000 0.0000 0.0000 0.0000 -0.3034 -0.0897 1.3173 3.7349 -0.7800 -0.1093 -0.0000 0.0000 -0.0000 -3.3184 2.0170 -2.4219 -0.0000 0.0000 -0.0000 -34.3274 -2.6593 2.4875 -44.6391 -13.3359 -17.5635 -10.6087 5.1116 48.5986 15.2400 -3.0955 -1.0909 -0.0000 0.0000 -0.0000 34.2957 5.0119 3.4326 41.0407 3.6702 -17.1587 10.5230 1.1552 23.3846 -11.9809 1.3006 -0.6796 0.0000 0.0000 0.0000 2.6014 2.3082 0.3960 0.8767 3.3280 5.2967 1.2703 -0.0634 -4.0607 0.0000 0.0000 -0.0000
-47.7802 39.9300 71.8085 -179.4540 4.8742 178.4740 0.0000 0.0000 0.0000 2.0516 -0.7588 0.0110 -0.8711 1.2866 4.5577 -2.6397 0.1629 -3.0909 0.0000 -0.0000 -0.0000 0.0000 0.0000 0.0000 -0.0641 -0.1575 1.3317 3.4833 -0.8116 -0.1531 -0.0000 0.0000 -0.0000 -3.1804 2.1352 -2.6963 -0.0000 0.0000 -0.0000 -34.1149 -2.5415 2.4270 -44.7895 -13.4634 -17.2689 -10.8082 5.1126 48.4797 15.5111 -3.1548 -1.1185 -0.0000 0.0000 -0.0000 34.3285 5.0179 3.4379 41.0980 3.7621 -17.1357 10.5304 1.3544 23.0658 -11.3522 1.3433 -0.6470 0.0000 0.0000 0.0000 2.6383 2.3036 0.3807 0.9105 3.3116 5.3435 1.2784 -0.0639 -4.0865 0.0000 0.0000 -0.0000
-47.7529 39.9300 71.7933 -179.3950 4.7892 178.5460 0.0000 0.0000 0.0000 2.1468 -0.7302 0.0045 -0.8602 1.1543 4.4922 -2.7089 0.1673 -3.0771 0.0000 -0.0000 -0.0000 0.0000 0.0000 0.0000 0.3266 -0.3273 1.2531 2.9524 -0.9029 -0.1911 -0.0000 0.0000 -0.0000 -2.7284 2.2388 -2.6562 -0.0000 0.0000 -0.0000 -33.8330 -2.5414 2.4097 -44.8727 -13.2440 -17.0809 -10.9465 5.1199 48.1712 15.5529 -3.2390 -1.1323 -0.0000 0.0000 -0.0000 34.7291 5.1009 3.5063 40.9140 3.9016 -17.1317 10.5562 1.2493 22.7929 -11.0216 1.2493 -0.6194 0.0000 0.0000 0.0000 2.7180 2.3061 0.2710 0.9555 3.2277 5.4505 1.3128 -0.0661 -4.1324 0.0000 0.0000 -0.0000
-47.7184 39.9300 71.7734 -179.3150 4.7534 178.6880 0.0000 0.0000 0.0000 2.3042 -0.6232 -0.0586 -0.9069 1.0077 4.3974 -2.7409 0.1693 -3.0430 0.0000 -0.0000 -0.0000 0.0000 0.0000 0.0000 0.6098 -0.4312 0.9393 2.6047 -0.9648 0.0476 -0.0000 0.0000 -0.0000 -2.4309 2.2651 -2.5590 -0.0000 0.0000 -0.0000 -33.6780 -2.5823 2.4165 -44.9635 -13.0195 -17.3707 -10.7226 5.1216 48.2058 15.1614 -3.3462 -1.1161 -0.0000 0.0000 -0.0000 34.9791 5.1510 3.5486 40.7870 4.1066 -17.1699 10.5389 1.0436 22.9297 -10.7191 1.2886 -0.6053 0.0000 0.0000 0.0000 2.8564 2.3725 0.0864 0.9451 3.1203 5.5904 1.3198 -0.0666 -4.1943 0.0000 0.0000 -0.0000
-47.6817 39.9300 71.7532 -179.3000 4.8380 178.8570 0.0000 0.0000 0.0000 2.4043 -0.5207 -0.2083 -0.9497 0.9959 4.3928 -2.7694 0.1711 -3.0362 0.0000 -0.0000 -0.0000 0.0000 0.0000 0.0000 0.6896 -0.4028 0.4977 2.5425 -0.9406 0.4790 -0.0000 0.0000 -0.0000 -2.6143 2.3170 -2.6954 -0.0000 0.0000 -0.0000 -33.5721 -2.5388 2.3928 -45.1952 -13.1032 -17.8914 -10.2906 5.1128 48.6895 14.7249 -3.3649 -1.0851 -0.0000 0.0000 -0.0000 34.8991 5.1380 3.5363 40.8838 4.3024 -17.1383 10.5359 0.9967 22.9549 -10.5758 1.4652 -0.6119 0.0000 0.0000 0.0000 2.9610 2.4647 -0.0782 0.8803 3.0982 5.6572 1.2723 -0.0635 -4.2361 0.0000 0.0000 -0.0000
-47.6486 39.9300 71.7349 -179.3710 4.9644 178.9720 0.0000 0.0000 0.0000 2.3808 -0.5159 -0.3527 -0.9283 1.1147 4.4671 -2.8517 0.1765 -3.0694 0.0000 -0.0000 -0.0000 0.0000 0.0000 0.0000 0.6752 -0.3299 0.2193 2.5252 -0.8678 0.6697 -0.0000 0.0000 -0.0000 -2.5889 2.3857 -2.9099 -0.0000 0.0000 -0.0000 -33.4324 -2.4952 2.3671 -45.4251 -13.2952 -18.0626 -10.1122 5.1044 49.0475 14.7389 -3.2351 -1.0705 -0.0000 0.0000 -0.0000 34.9070 5.1464 3.5405 40.9128 4.2892 -17.0138 10.6140 1.0693 22.3740 -10.9028 1.5432 -0.6380 0.0000 0.0000 0.0000 2.9667 2.5124 -0.1345 0.8160 3.1537 5.6041 1.1946 -0.0585 -4.2418 0.0000 0.0000 -0.0000
-47.6239 39.9300 71.7146 -179.4480 5.0234 178.9850 0.0000 0.0000 0.0000 2.3046 -0.6027 -0.3591 -0.8456 1.2423 4.5024 -2.9713 0.1843 -3.1057 0.0000 -0.0000 -0.0000 0.0000 0.0000 0.0000 0.6890 -0.3043 0.2095 2.4320 -0.8200 0.4932 -0.0000 0.0000 -0.0000 -2.1962 2.3513 -2.6874 -0.0000 0.0000 -0.0000 -33.3764 -2.6132 2.4102 -45.4254 -13.2707 -17.8577 -10.2667 5.1062 48.9259 15.0789 -3.1152 -1.0814 -0.0000 0.0000 -0.0000 35.2209 5.2107 3.5946 40.6536 4.0470 -17.0043 10.6705 1.0592 21.8270 -11.2650 1.5452 -0.6599 0.0000 0.0000 0.0000 2.9360 2.5223 -0.0757 0.7814 3.1816 5.5230 1.1245 -0.0540 -4.2390 0.0000 0.0000 -0.0000
-47.6095 39.9300 71.6913 -179.4830 5.0380 178.9360 0.0000 0.0000 0.0000 2.2441 -0.7093 -0.2589 -0.7476 1.3442 4.4815 -3.0662 0.1905 -3.1307 0.0000 -0.0000 -0.0000 0.0000 0.0000 0.0000 0.6760 -0.3101 0.2634 2.4581 -0.8265 0.3419 -0.0000 0.0000 -0.0000 -2.0771 2.3249 -2.2678 -0.0000 0.0000 -0.0000 -33.5407 -2.8188 2.5015 -45.2451 -13.1293 -17.6780 -10.4396 5.1127 48.6320 15.2829 -3.1687 -1.1032 -0.0000 0.0000 -0.0000 35.4174 5.2427 3.6253 40.3966 3.8588 -17.2543 10.5688 0.9279 22.1598 -11.0652 1.6393 -0.6562 0.0000 0.0000 0.0000 2.9193 2.5208 0.0277 0.7830 3.1997 5.4975 1.0847 -0.0515 -4.2397 0.0000 0.0000 -0.0000
-47.6035 39.9300 71.6700 -179.5290 5.1028 178.9230 0.0000 0.0000 0.0000 2.1709 -0.7947 -0.2264 -0.6694 1.4864 4.5009 -3.1364 0.1951 -3.1683 0.0000 -0.0000 -0.0000 0.0000 0.0000 0.0000 0.6170 -0.3237 0.1907 2.5955 -0.8677 0.4901 -0.0000 0.0000 -0.0000 -2.1087 2.3556 -2.3707 -0.0000 0.0000 -0.0000 -33.6964 -2.8475 2.5228 -45.2410 -13.1216 -17.5950 -10.4830 5.1165 48.4843 15.2599 -3.2795 -1.1153 -0.0000 0.0000 -0.0000 35.1905 5.1900 3.5834 40.4900 3.9430 -17.5904 10.3729 0.7700 23.0584 -10.7642 1.6699 -0.6405 0.0000 0.0000 0.0000 2.8557 2.4708 0.0894 0.8402 3.3402 5.4873 1.0792 -0.0511 -4.2207 0.0000 0.0000 -0.0000
-47.6020 39.9300 71.6532 -179.6110 5.2244 178.9810 0.0000 0.0000 0.0000 2.0742 -0.8517 -0.3154 -0.6216 1.6664 4.5788 -3.2111 0.2001 -3.2213 0.0000 -0.0000 -0.0000 0.0000 0.0000 0.0000 0.6016 -0.3594 0.0604 2.6341 -0.9171 0.7058 -0.0000 0.0000 -0.0000 -2.1443 2.4784 -2.8638 -0.0000 0.0000 -0.0000 -33.6254 -2.6464 2.4387 -45.5103 -13.2476 -17.4473 -10.5074 5.1177 48.4330 15.2317 -3.2758 -1.1127 -0.0000 0.0000 -0.0000 34.8144 5.1123 3.5184 40.8065 4.1515 -17.7765 10.2560 0.5916 23.6105 -11.1469 1.3895 -0.6388 0.0000 0.0000 0.0000 2.7242 2.3620 0.0821 0.9437 3.5906 5.4488 1.0897 -0.0518 -4.1913 0.0000 0.0000 -0.0000
-47.6014 39.9300 71.6371 -179.6630 5.3322 179.0390 0.0000 0.0000 0.0000 2.0188 -0.8719 -0.3897 -0.6034 1.7966 4.6305 -3.2526 0.2029 -3.2627 0.0000 -0.0000 -0.0000 0.0000 0.0000 0.0000 0.6357 -0.4013 0.0529 2.6188 -0.9581 0.6682 -0.0000 0.0000 -0.0000 -2.0533 2.5723 -3.1007 -0.0000 0.0000 -0.0000 -33.5530 -2.4632 2.3617 -45.6483 -13.3572 -17.1663 -10.6754 5.1221 48.2083 15.2785 -3.2176 -1.1091 -0.0000 0.0000 -0.0000 34.6029 5.0763 3.4852 40.9993 4.2102 -17.8203 10.2575 0.3544 23.6182 -11.7531 1.0714 -0.6450 0.0000 0.0000 0.0000 2.6310 2.2829 0.0624 1.0233 3.7724 5.4277 1.0865 -0.0516 -4.1993 0.0000 0.0000 -0.0000
-47.6024 39.9300 71.6203 -179.6590 5.4047 179.0340 0.0000 0.0000 0.0000 2.0209 -0.8669 -0.3681 -0.6006 1.8631 4.6445 -3.2163 0.2006 -3.2932 0.0000 -0.0000 -0.0000 0.0000 0.0000 0.0000 0.6051 -0.4012 0.2150 2.7690 -0.9778 0.3995 -0.0000 0.0000 -0.0000 -1.9428 2.5412 -2.9308 -0.0000 0.0000 -0.0000 -33.7392 -2.4892 2.3833 -45.4991 -13.2623 -17.1042 -10.7554 5.1252 48.0670 15.1731 -3.2472 -1.1041 -0.0000 0.0000 -0.0000 34.5194 5.0692 3.4751 40.9790 4.0822 -17.8284 10.3008 0.1553 23.4321 -11.5317 1.1538 -0.6398 0.0000 0.0000 0.0000 2.6342 2.2943 0.0963 1.0291 3.8226 5.4470 1.0656 -0.0502 -4.2432 0.0000 0.0000 -0.0000
-47.6056 39.9300 71.6059 -179.6610 5.4781 178.9950 0.0000 0.0000 0.0000 2.0120 -0.8701 -0.3307 -0.5960 1.9343 4.6915 -3.1584 0.1970 -3.3374 0.0000 -0.0000 -0.0000 0.0000 0.0000 0.0000 0.4919 -0.3632 0.4285 3.0207 -0.9726 0.1338 -0.0000 0.0000 -0.0000 -1.9045 2.4786 -2.7975 -0.0000 0.0000 -0.0000 -33.9842 -2.6206 2.4506 -45.3598 -13.1152 -17.4095 -10.5695 5.1187 48.3723 15.0027 -3.3784 -1.1079 -0.0000 0.0000 -0.0000 34.4827 5.0625 3.4692 40.8750 3.9052 -17.7961 10.3536 0.1460 23.1404 -10.6849 1.3747 -0.6109 0.0000 0.0000 0.0000 2.6523 2.3374 0.1812 0.9956 3.8606 5.4409 1.0570 -0.0497 -4.2670 0.0000 0.0000 -0.0000
-47.6090 39.9300 71.5914 -179.6850 5.5533 178.9650 0.0000 0.0000 0.0000 1.9826 -0.8821 -0.3081 -0.5937 2.0148 4.7446 -3.1559 0.1970 -3.3828 0.0000 -0.0000 -0.0000 0.0000 0.0000 0.0000 0.4290 -0.3403 0.5585 3.1208 -0.9612 0.0244 -0.0000 0.0000 -0.0000 -1.8502 2.4907 -2.9224 -0.0000 0.0000 -0.0000 -33.9698 -2.6722 2.4703 -45.4718 -13.1065 -17.7124 -10.3369 5.1092 48.7936 14.9574 -3.4492 -1.1131 -0.0000 0.0000 -0.0000 34.5494 5.0648 3.4759 40.7667 3.7506 -17.7211 10.4129 0.3017 22.7539 -10.3958 1.1136 -0.5720 0.0000 0.0000 0.0000 2.6383 2.3544 0.2841 0.9747 3.9411 5.3761 1.0740 -0.0508 -4.2604 0.0000 0.0000 -0.0000
-47.6092 39.9300 71.5706 -179.6720 5.5856 178.9180 0.0000 0.0000 0.0000 1.9998 -0.8802 -0.1991 -0.6036 2.0407 4.6984 -3.1859 0.1990 -3.3947 0.0000 -0.0000 -0.0000 0.0000 0.0000 0.0000 0.4744 -0.3519 0.5739 3.0791 -0.9694 0.0890 -0.0000 0.0000 -0.0000 -1.7249 2.5170 -3.0715 -0.0000 0.0000 -0.0000 -33.8076 -2.6359 2.4458 -45.6530 -13.2452 -17.7823 -10.2564 5.1077 48.8781 14.9314 -3.4025 -1.1054 -0.0000 0.0000 -0.0000 34.6941 5.0814 3.4953 40.6556 3.6263 -17.6974 10.4395 0.4187 22.5419 -10.9673 0.4818 -0.5495 0.0000 0.0000 0.0000 2.6584 2.3746 0.4099 0.9686 3.9734 5.3137 1.0863 -0.0516 -4.2724 0.0000 0.0000 -0.0000
-47.6068 39.9300 71.5450 -179.6160 5.5524 178.8250 0.0000 0.0000 0.0000 2.0554 -0.8837 0.0200 -0.6063 2.0082 4.5666 -3.1930 0.1994 -3.3857 0.0000 -0.0000 -0.0000 0.0000 0.0000 0.0000 0.5126 -0.3751 0.5503 3.1154 -1.0064 0.2313 -0.0000 0.0000 -0.0000 -1.6349 2.4948 -3.0722 -0.0000 0.0000 -0.0000 -33.7942 -2.6152 2.4367 -45.6142 -13.4844 -17.7039 -10.3089 5.1114 48.7292 14.8990 -3.3746 -1.0995 -0.0000 0.0000 -0.0000 34.7798 5.0941 3.5079 40.5672 3.5628 -17.7741 10.4140 0.3521 22.6397 -11.5338 0.2288 -0.5553 0.0000 0.0000 0.0000 2.7276 2.4151 0.5649 0.9612 3.9081 5.2961 1.0734 -0.0507 -4.3161 0.0000 0.0000 -0.0000
-47.6045 39.9300 71.5225 -179.5870 5.4771 178.7350 0.0000 0.0000 0.0000 2.0684 -0.9229 0.2100 -0.5856 1.9689 4.4743 -3.1913 0.1993 -3.3984 0.0000 -0.0000 -0.0000 0.0000 0.0000 0.0000 0.4550 -0.4031 0.5480 3.2607 -1.0625 0.3176 -0.0000 0.0000 -0.0000 -1.6357 2.4913 -3.0298 -0.0000 0.0000 -0.0000 -33.8999 -2.6385 2.4525 -45.4243 -13.7631 -17.6022 -10.3892 5.1093 48.7697 15.0919 -3.4582 -1.1247 -0.0000 0.0000 -0.0000 34.7798 5.0942 3.5080 40.5365 3.5618 -17.8996 10.3628 0.1660 22.8977 -11.4562 0.6043 -0.5853 0.0000 0.0000 0.0000 2.7621 2.4329 0.6933 0.9546 3.8075 5.2930 1.0744 -0.0508 -4.3497 0.0000 0.0000 -0.0000
-47.6032 39.9300 71.5063 -179.6050 5.4206 178.7210 0.0000 0.0000 0.0000 2.0392 -0.9563 0.2525 -0.5746 1.9450 4.4781 -3.2025 0.2002 -3.4353 0.0000 -0.0000 -0.0000 0.0000 0.0000 0.0000 0.3825 -0.4341 0.5111 3.3452 -1.1079 0.3470 -0.0000 0.0000 -0.0000 -1.6248 2.5373 -3.0536 -0.0000 0.0000 -0.0000 -33.9052 -2.6538 2.4589 -45.3594 -13.9750 -17.5442 -10.4179 5.1007 49.0508 15.4689 -3.5641 -1.1671 -0.0000 0.0000 -0.0000 34.7857 5.0935 3.5082 40.5462 3.5732 -18.0249 10.2999 0.0284 23.2425 -10.9338 1.0635 -0.5984 0.0000 0.0000 0.0000 2.7348 2.4167 0.7260 0.9525 3.7500 5.2871 1.1371 -0.0548 -4.3572 0.0000 0.0000 -0.0000
